# xmcd CD database file
#
# Track frame offsets:
#	150
#	10857
#	27837
#	47034
#	70369
#	96126
#	113696
#	133094
#	160634
#	178822
#	204150
#	216013
#	235716
#	251432
#	266168
#	282819
#
# Disc length: 4006 seconds
#
# Revision: 0
# Processed by: cddbd v1.5.1PL2 Copyright (c) Steve Scherf et al.
# Submitted via: CDex 1.51
#
DISCID=d80fa410
DTITLE=Love Songs In Caf'e - ©@°Ø±¡ºq
DYEAR=2004
DGENRE=New Age
TTITLE0=The Crocodile Tango
TTITLE1=Je M'Appelle Helene
TTITLE2=Moon River
TTITLE3=Just The Way You Are
TTITLE4=Ray of Love
TTITLE5=Mientes Tan Bien
TTITLE6=Quan Somniis Fes-Ho En Mi
TTITLE7=Petit, Tu Viens Petit
TTITLE8=Un Capalavoro
TTITLE9=Another Star
TTITLE10=Pela Rva
TTITLE11=Sans Reponse
TTITLE12=Hymne A L'Amour
TTITLE13=Autumn Leaves
TTITLE14=O Pastor
TTITLE15=Plaisir D'amour
EXTD=YEAR: 2004
EXTT0=
EXTT1=
EXTT2=
EXTT3=
EXTT4=
EXTT5=
EXTT6=
EXTT7=
EXTT8=
EXTT9=
EXTT10=
EXTT11=
EXTT12=
EXTT13=
EXTT14=
EXTT15=
PLAYORDER=
